<?xml version="1.0"?>
<svg xmlns="http://www.w3.org/2000/svg" xmlns:xlink="http://www.w3.org/1999/xlink" xmlns:svgjs="http://svgjs.com/svgjs" version="1.1" width="512" height="512" x="0" y="0" viewBox="0 0 24 24" style="enable-background:new 0 0 512 512" xml:space="preserve" class=""><g transform="matrix(-1,2.4492935982947064e-16,2.4492935982947064e-16,1,23.999998092651367,-3.552713678800501e-15)"><path xmlns="http://www.w3.org/2000/svg" d="m23.772 10.462-8.5-8.25c-.216-.21-.539-.269-.814-.153-.277.118-.458.39-.458.691v4.252c-7.743.134-14 6.474-14 14.248 0 .342.241.622.572.708.059.015.118.022.177.022.274 0 .541-.157.678-.404 2.245-4.056 6.519-6.576 11.155-6.576h1.418v4.25c0 .301.181.573.458.691.274.116.599.057.814-.153l8.5-8.25c.146-.141.228-.335.228-.538s-.082-.397-.228-.538z" fill="#1b2d3f" data-original="#000000" style="" class=""/></g></svg>
