<svg xmlns="http://www.w3.org/2000/svg" width="28.98" height="23.686" viewBox="0 0 28.98 23.686"><defs><style>.a{fill:#95a2ad;}</style></defs><g transform="translate(0 -64.545)"><path class="a" d="M26.313,64.267H2.667a2.668,2.668,0,0,0,0,5.336H26.313a2.668,2.668,0,0,0,0-5.336Z" transform="translate(0 0.278)"/><path class="a" d="M26.313,208.867H2.667a2.668,2.668,0,0,0,0,5.336H26.313a2.668,2.668,0,0,0,0-5.336Z" transform="translate(0 -135.147)"/><path class="a" d="M26.313,353.467H2.667a2.668,2.668,0,0,0,0,5.336H26.313a2.668,2.668,0,0,0,0-5.336Z" transform="translate(0 -270.572)"/></g></svg>