<svg width="45" height="43" viewBox="0 0 45 43" fill="none" xmlns="http://www.w3.org/2000/svg">
<g id="brightness_high_24px">
<path id="icon/device/brightness_high_24px" fill-rule="evenodd" clip-rule="evenodd" d="M37.5 15.5696V10.75C37.5 8.77918 35.8125 7.16668 33.75 7.16668H28.7063L25.1438 3.76251C23.6813 2.36501 21.3 2.36501 19.8375 3.76251L16.2938 7.16668H11.25C9.18751 7.16668 7.50001 8.77918 7.50001 10.75V15.5696L3.93751 18.9738C2.47501 20.3713 2.47501 22.6467 3.93751 24.0442L7.50001 27.4483V32.25C7.50001 34.2208 9.18751 35.8333 11.25 35.8333H16.2938L19.8563 39.2375C21.3188 40.635 23.7 40.635 25.1625 39.2375L28.725 35.8333H33.75C35.8125 35.8333 37.5 34.2208 37.5 32.25V27.4304L41.0625 24.0263C42.525 22.6288 42.525 20.3533 41.0625 18.9558L37.5 15.5696ZM22.5 32.25C16.2938 32.25 11.25 27.4304 11.25 21.5C11.25 15.5696 16.2938 10.75 22.5 10.75C28.7063 10.75 33.75 15.5696 33.75 21.5C33.75 27.4304 28.7063 32.25 22.5 32.25ZM15 21.5C15 17.5404 18.3563 14.3333 22.5 14.3333C26.6438 14.3333 30 17.5404 30 21.5C30 25.4596 26.6438 28.6667 22.5 28.6667C18.3563 28.6667 15 25.4596 15 21.5Z" fill="black" fill-opacity="0.54"/>
</g>
</svg>
