<svg width="25" height="25" viewBox="0 0 25 25" fill="none" xmlns="http://www.w3.org/2000/svg">
<path opacity="0.4" d="M23.6004 22.1574H15.6921C14.9205 22.1574 14.293 22.7948 14.293 23.5787C14.293 24.364 14.9205 25 15.6921 25H23.6004C24.372 25 24.9996 24.364 24.9996 23.5787C24.9996 22.7948 24.372 22.1574 23.6004 22.1574Z" fill="#200E32"/>
<path d="M10.1509 5.42284L17.6448 11.4783C17.8256 11.6231 17.8564 11.8889 17.7154 12.074L8.83116 23.6505C8.27268 24.3656 7.44966 24.7702 6.56785 24.7851L1.71792 24.8449C1.45925 24.8478 1.23292 24.6687 1.17414 24.4119L0.0718781 19.6195C-0.11918 18.7386 0.0718781 17.8279 0.630356 17.1262L9.55865 5.4945C9.70268 5.30788 9.96869 5.27503 10.1509 5.42284Z" fill="#200E32"/>
<path opacity="0.4" d="M20.999 7.8684L19.5543 9.6719C19.4088 9.85554 19.1472 9.8854 18.9665 9.73909C17.2102 8.31778 12.713 4.67046 11.4652 3.65972C11.283 3.51043 11.258 3.24468 11.405 3.05955L12.7982 1.3292C14.0621 -0.298133 16.2667 -0.44743 18.045 0.970889L20.0878 2.59822C20.9255 3.25513 21.484 4.12105 21.6751 5.03176C21.8955 6.03354 21.6604 7.01741 20.999 7.8684Z" fill="#200E32"/>
</svg>
