<svg width="25" height="25" viewBox="0 0 25 25" fill="none" xmlns="http://www.w3.org/2000/svg">
<path opacity="0.4" d="M17.595 0H21.8274C23.5803 0 25.0006 1.43231 25.0006 3.19995V7.46815C25.0006 9.23579 23.5803 10.6681 21.8274 10.6681H17.595C15.8422 10.6681 14.4219 9.23579 14.4219 7.46815V3.19995C14.4219 1.43231 15.8422 0 17.595 0Z" fill="#200E32"/>
<path d="M7.40557 14.3319C9.15839 14.3319 10.5787 15.7642 10.5787 17.5318V21.8C10.5787 23.5665 9.15839 25 7.40557 25H3.17314C1.42031 25 0 23.5665 0 21.8V17.5318C0 15.7642 1.42031 14.3319 3.17314 14.3319H7.40557ZM21.8267 14.3319C23.5795 14.3319 24.9998 15.7642 24.9998 17.5318V21.8C24.9998 23.5665 23.5795 25 21.8267 25H17.5943C15.8415 25 14.4211 23.5665 14.4211 21.8V17.5318C14.4211 15.7642 15.8415 14.3319 17.5943 14.3319H21.8267ZM7.40557 0C9.15839 0 10.5787 1.43231 10.5787 3.19995V7.46816C10.5787 9.2358 9.15839 10.6681 7.40557 10.6681H3.17314C1.42031 10.6681 0 9.2358 0 7.46816V3.19995C0 1.43231 1.42031 0 3.17314 0H7.40557Z" fill="#200E32"/>
</svg>
